<svg width="127" height="127" viewBox="0 0 127 127" fill="none" xmlns="http://www.w3.org/2000/svg">
<path d="M15 110.721V65.7315C15 63.3374 18.1147 62.3356 19.5571 64.2657L45.274 98.6788C47.6984 101.923 49.0057 105.847 49.0057 109.872C49.0057 119.323 41.203 127 31.5778 127C22.4221 127 15 119.712 15 110.721Z" fill="#1FAE4B"/>
<path d="M72.4316 0H46.0476C45.1382 0 44.6282 1.02473 45.1826 1.7325L64.9235 26.9321C65.2347 27.3294 65.7162 27.5622 66.2266 27.5622H73.5714C74.1553 27.5622 74.6953 27.8662 74.9903 28.3611L82.4655 40.9029C82.7668 41.4083 82.7657 42.0342 82.4628 42.5385L74.9911 54.9786C74.6955 55.4707 74.1569 55.7728 73.575 55.7728H59.7571C59.2484 55.7728 58.7683 55.5415 58.4569 55.1464L16.9628 2.49081C16.3233 1.67929 15 2.12336 15 3.14948V35.2357C15 35.5868 15.1166 35.9283 15.332 36.2085L85.1476 127H110.902C111.805 127 112.321 125.987 111.779 125.278L82.0684 86.3804C81.4856 85.6174 81.6998 84.5272 82.5299 84.032L85.1476 82.4703C95.9365 76.4264 103.34 66.3653 105.97 59.9343C108.598 53.5094 109.087 45.9787 109.087 42.5385C109.087 39.0984 109.344 29.3928 98.993 15.4241C88.5808 1.37285 72.4316 0 72.4316 0Z" fill="#202020"/>
</svg>